<svg version="1.0" xmlns="http://www.w3.org/2000/svg"
 width="225.000000pt" height="225.000000pt" viewBox="0 0 225.000000 225.000000"
 preserveAspectRatio="xMidYMid meet"
 style="fill: #808080;">
<g transform="translate(0.000000,225.000000) scale(0.100000,-0.100000)"
stroke="none">
<path d="M980 2239 c-306 -35 -616 -229 -793 -496 -123 -186 -178 -375 -178
-618 0 -245 51 -420 180 -617 225 -346 614 -531 1039 -497 463 37 867 379 983
831 100 395 -19 812 -312 1093 -250 239 -567 344 -919 304z m255 -99 c284 -33
534 -175 705 -401 234 -311 272 -715 100 -1064 -217 -440 -717 -664 -1190
-534 -346 96 -623 380 -716 735 -23 86 -27 119 -27 249 0 129 4 164 26 246 78
296 265 528 539 667 177 91 364 124 563 102z"/>
<path d="M613 1792 c-136 -108 -242 -263 -295 -432 -20 -66 -23 -95 -23 -235
0 -140 3 -169 23 -235 44 -138 106 -242 206 -349 75 -79 139 -121 183 -121
l33 0 0 195 0 195 385 0 385 0 2 -192 3 -193 33 -3 c75 -7 245 164 330 333 63
127 77 193 77 375 0 160 -1 168 -33 259 -44 125 -100 218 -188 311 -97 101
-142 132 -186 128 l-33 -3 -3 -192 -2 -193 -385 0 -385 0 0 195 0 195 -39 0
c-30 0 -50 -9 -88 -38z m18 -1212 c-2 -3 -29 23 -60 56 -69 76 -134 196 -162
300 -27 102 -30 271 -6 364 26 102 98 237 164 309 l58 65 5 -545 c3 -299 3
-546 1 -549z m1101 966 c99 -144 132 -263 125 -451 -4 -114 -8 -140 -35 -213
-38 -101 -85 -179 -151 -252 l-50 -55 -1 549 0 550 36 -35 c20 -18 54 -60 76
-93z m-222 -421 l0 -215 -385 0 -385 0 0 215 0 215 385 0 385 0 0 -215z"/>
</g>
</svg>
