<svg version="1.0" xmlns="http://www.w3.org/2000/svg"
 width="256.000000pt" height="228.000000pt" viewBox="0 0 256.000000 228.000000"
 preserveAspectRatio="xMidYMid meet">
<g transform="translate(0.000000,228.000000) scale(0.100000,-0.100000)"
fill="#006400" stroke="none">
<path d="M369 1681 l-29 -29 0 -536 0 -535 24 -28 24 -28 892 0 892 0 24 28
24 28 0 535 0 536 -29 29 -29 29 -882 0 -882 0 -29 -29z m1749 -563 l2 -488
-25 0 c-33 0 -1597 0 -1630 0 l-25 0 0 483 c0 266 3 487 7 490 3 4 380 6 837
5 l831 -3 3 -487z"/>
<path d="M1051 1453 c-69 -52 -110 -93 -158 -158 -36 -48 -62 -90 -56 -94 5
-3 26 -19 46 -34 20 -16 41 -27 46 -25 5 1 30 31 55 66 25 34 50 62 55 62 10
0 173 -174 179 -191 2 -5 -57 -74 -132 -153 -75 -79 -136 -150 -136 -157 0
-23 14 -37 41 -44 24 -6 38 6 155 139 70 80 131 146 135 146 4 0 69 -65 144
-144 133 -140 138 -144 165 -134 63 21 53 38 -127 215 -92 91 -159 158 -147
149 20 -16 23 -14 99 74 44 49 83 90 89 90 5 0 21 -11 35 -24 25 -23 168 -106
184 -106 12 0 -74 161 -106 197 -16 18 -25 37 -22 43 8 14 -23 39 -48 40 -10
0 -40 20 -66 45 -26 25 -52 45 -58 45 -5 0 -27 -18 -48 -41 l-40 -40 53 -47
c29 -26 52 -53 52 -61 0 -8 -38 -54 -85 -101 l-84 -87 -92 94 c-105 106 -104
96 -7 170 26 21 48 40 48 44 0 3 -17 26 -38 49 l-38 43 -93 -70z" fill="#444444"/>
<path d="M168 252 c-133 -133 -168 -173 -168 -194 0 -61 -76 -58 1280 -58
1356 0 1280 -3 1280 58 0 21 -35 61 -168 194 l-168 168 -944 0 -944 0 -168
-168z m1457 -72 c14 -27 25 -54 25 -60 0 -7 -122 -10 -370 -10 -248 0 -370 3
-370 10 0 6 11 33 25 60 l25 50 320 0 320 0 25 -50z"/>
</g>
</svg>
